<?xml version="1.0" encoding="UTF-8" standalone="no"?><!DOCTYPE svg PUBLIC "-//W3C//DTD SVG 1.1//EN" "http://www.w3.org/Graphics/SVG/1.1/DTD/svg11.dtd"><svg width="100%" height="100%" viewBox="0 0 250 250" version="1.1" xmlns="http://www.w3.org/2000/svg" xmlns:xlink="http://www.w3.org/1999/xlink" xml:space="preserve" xmlns:serif="http://www.serif.com/" style="fill-rule:evenodd;clip-rule:evenodd;stroke-linejoin:round;stroke-miterlimit:2;"><g transform="matrix(246.852,0,0,246.852,1.99693,216.731)"></g><g transform="matrix(246.852,0,0,246.852,36.7104,216.731)"></g><g transform="matrix(246.852,0,0,246.852,55.9957,216.731)"></g><g transform="matrix(246.852,0,0,246.852,79.1381,216.731)"></g><g transform="matrix(246.852,0,0,246.852,98.4234,216.731)"></g><g transform="matrix(246.852,0,0,246.852,117.709,216.731)"></g><g transform="matrix(246.852,0,0,246.852,136.994,216.731)"></g><g transform="matrix(246.852,0,0,246.852,163.993,216.731)"></g><g transform="matrix(246.852,0,0,246.852,187.136,216.731)"></g><g transform="matrix(246.852,0,0,246.852,210.278,216.731)"></g><g transform="matrix(246.852,0,0,246.852,229.563,216.731)"></g><g transform="matrix(246.852,0,0,246.852,248.849,216.731)"></g><text x="1.997px" y="216.731px" style="font-family:'FontAwesome6Free-Solid', 'Font Awesome 6 Free';font-weight:900;font-size:246.852px;"></text></svg>