<?xml version="1.0" encoding="UTF-8" standalone="no"?><!DOCTYPE svg PUBLIC "-//W3C//DTD SVG 1.1//EN" "http://www.w3.org/Graphics/SVG/1.1/DTD/svg11.dtd"><svg width="100%" height="100%" viewBox="0 0 1844 1557" version="1.1" xmlns="http://www.w3.org/2000/svg" xmlns:xlink="http://www.w3.org/1999/xlink" xml:space="preserve" xmlns:serif="http://www.serif.com/" style="fill-rule:evenodd;clip-rule:evenodd;stroke-linejoin:round;stroke-miterlimit:2;"><g><g transform="matrix(95.8333,0,0,95.8333,1347.71,79.155)"></g><text x="497.953px" y="79.155px" style="font-family:'Lexend-Bold', 'Lexend';font-weight:700;font-size:95.833px;fill:#fff;">Namier<tspan x="862.886px 900.549px " y="79.155px 79.155px ">te</tspan> na EAN</text><path d="M47.927,1396.41c-0,62.071 50.318,112.389 112.389,112.389l243.952,0l0,45.254c0,0 -281.785,0 -281.785,0c-31.776,0 -62.25,-12.622 -84.719,-35.091c-22.468,-22.469 -35.091,-52.943 -35.091,-84.719l-0,-281.785c-0,0 45.254,0 45.254,0c-0,0 -0,243.952 -0,243.952Zm1675.25,-1376.67c31.776,0 62.25,12.623 84.719,35.092c22.468,22.469 35.091,52.943 35.091,84.718l0,281.786c0,-0 -45.254,-0 -45.254,-0c0,-0 0,-243.953 0,-243.953c0,-62.07 -50.318,-112.389 -112.389,-112.389l-243.952,0l-0,-45.254c-0,0 281.785,0 281.785,0Zm-37.833,1489.06c62.071,0 112.389,-50.318 112.389,-112.389l0,-243.952l45.254,0c0,0 0,281.785 0,281.785c0,31.776 -12.623,62.25 -35.091,84.719c-22.469,22.469 -52.943,35.091 -84.719,35.091l-281.785,0c-0,0 -0,-45.254 -0,-45.254c-0,0 243.952,0 243.952,0Zm-1281.08,-1489.06l0,45.254c0,0 -243.952,0 -243.952,0c-62.071,0 -112.389,50.319 -112.389,112.389l-0,243.953l-45.254,-0c-0,-0 -0,-281.786 -0,-281.786c-0,-31.775 12.623,-62.249 35.091,-84.718c22.469,-22.469 52.943,-35.092 84.719,-35.092l281.785,0Z" style="fill:#fff;"/></g></svg>