<?xml version="1.0" encoding="UTF-8" standalone="no"?><!DOCTYPE svg PUBLIC "-//W3C//DTD SVG 1.1//EN" "http://www.w3.org/Graphics/SVG/1.1/DTD/svg11.dtd"><svg width="100%" height="100%" viewBox="0 0 716 716" version="1.1" xmlns="http://www.w3.org/2000/svg" xmlns:xlink="http://www.w3.org/1999/xlink" xml:space="preserve" xmlns:serif="http://www.serif.com/" style="fill-rule:evenodd;clip-rule:evenodd;stroke-linejoin:round;stroke-miterlimit:2;"><g transform="matrix(815.897,0,0,815.897,0.256041,664.537)"></g><g transform="matrix(815.897,0,0,815.897,63.2481,664.537)"></g><g transform="matrix(815.897,0,0,815.897,136.739,664.537)"></g><g transform="matrix(815.897,0,0,815.897,199.731,664.537)"></g><g transform="matrix(815.897,0,0,815.897,262.723,664.537)"></g><g transform="matrix(815.897,0,0,815.897,315.216,664.537)"></g><g transform="matrix(815.897,0,0,815.897,367.71,664.537)"></g><g transform="matrix(815.897,0,0,815.897,420.203,664.537)"></g><g transform="matrix(815.897,0,0,815.897,483.195,664.537)"></g><g transform="matrix(815.897,0,0,815.897,546.187,664.537)"></g><g transform="matrix(815.897,0,0,815.897,598.68,664.537)"></g><g transform="matrix(815.897,0,0,815.897,661.672,664.537)"></g><g transform="matrix(815.897,0,0,815.897,714.166,664.537)"></g><text x="0.256px" y="664.537px" style="font-family:'FontAwesome6Free-Solid', 'Font Awesome 6 Free';font-weight:900;font-size:815.897px;fill:#33bd59;">☑</text></svg>