<?xml version="1.0" encoding="UTF-8" standalone="no"?><!DOCTYPE svg PUBLIC "-//W3C//DTD SVG 1.1//EN" "http://www.w3.org/Graphics/SVG/1.1/DTD/svg11.dtd"><svg width="100%" height="100%" viewBox="0 0 75 79" version="1.1" xmlns="http://www.w3.org/2000/svg" xmlns:xlink="http://www.w3.org/1999/xlink" xml:space="preserve" xmlns:serif="http://www.serif.com/" style="fill-rule:evenodd;clip-rule:evenodd;stroke-linejoin:round;stroke-miterlimit:2;"><path d="M30.667,27.313l11.789,-11.791l18.558,18.553l-11.795,11.79l22.825,22.824l-3.225,3.225l-64.201,-64.201l3.225,-3.225l22.824,22.825Zm12.101,25l-15.044,15.037c-1.485,1.485 -3.326,2.584 -5.339,3.169l-17.177,5.054c-1.202,0.357 -2.503,0.028 -3.389,-0.985c-0.887,-0.757 -1.218,-2.056 -0.865,-3.269l5.053,-17.173c0.594,-2.013 1.683,-3.855 3.169,-5.339l15.042,-15.044l18.55,18.55Zm9.824,-46.929c3.569,-3.569 9.364,-3.569 12.933,-0l5.625,5.629c3.568,3.567 3.568,9.357 -0,12.926l-6.91,6.909l-18.558,-18.555l6.91,-6.909Z" style="fill:#b8b8b9;"/></svg>