<?xml version="1.0" encoding="UTF-8" standalone="no"?><!DOCTYPE svg PUBLIC "-//W3C//DTD SVG 1.1//EN" "http://www.w3.org/Graphics/SVG/1.1/DTD/svg11.dtd"><svg width="100%" height="100%" viewBox="0 0 341 279" version="1.1" xmlns="http://www.w3.org/2000/svg" xmlns:xlink="http://www.w3.org/1999/xlink" xml:space="preserve" xmlns:serif="http://www.serif.com/" style="fill-rule:evenodd;clip-rule:evenodd;stroke-linejoin:round;stroke-miterlimit:2;"><path d="M243.355,100.829c-7.819,0 -14.156,-6.348 -14.156,-14.155l-0,-70.78c-0,-7.819 6.337,-14.156 14.156,-14.156l70.779,-0c7.808,-0 14.156,6.337 14.156,14.156l0,70.78c0,7.807 -6.348,14.155 -14.156,14.155l-70.779,0Zm17.473,-60.14l10.418,10.396l-10.418,10.594c-2.057,2.08 -2.057,5.442 0,7.322c2.08,2.256 5.442,2.256 7.322,-0l10.396,-10.219l10.594,10.219c2.08,2.256 5.442,2.256 7.322,-0c2.256,-1.88 2.256,-5.242 -0,-7.322l-10.219,-10.594l10.219,-10.396c2.256,-1.88 2.256,-5.242 -0,-7.321c-1.88,-2.058 -5.242,-2.058 -7.322,-0l-10.594,10.417l-10.396,-10.417c-1.88,-2.058 -5.242,-2.058 -7.322,-0c-2.057,2.079 -2.057,5.441 0,7.321Zm-205.359,136.917c-30.506,-1.122 -54.834,-26.198 -54.836,-56.914c-0.011,-5.132 -0.012,-10.59 -0.012,-15.305c-0.001,-12.64 5.07,-24.752 14.076,-33.622c11.113,-10.855 26.292,-17.548 43.078,-17.548l108.003,0c17.046,0 30.857,13.811 30.857,30.857l0.003,61.717c0,17.045 -13.81,30.856 -30.856,30.856l-56.898,0l-40.259,69.732c3.691,2.13 4.97,6.904 2.839,10.594l-7.715,13.363c-2.146,3.615 -6.864,4.879 -10.548,2.772l-40.082,-23.142c-3.691,-2.131 -4.955,-6.848 -2.824,-10.539l7.71,-13.361c2.133,-3.691 6.848,-4.955 10.539,-2.824l26.925,-46.636Zm283.022,-68.456l0,19.801l-119.493,0l-0,-19.801l119.493,0Zm0,28.371l0,25.531l-119.493,-0l-0,-25.531l119.493,0Zm0,34.101l0,32.03l-119.493,0l-0,-32.03l119.493,-0Zm0,82.981l0,20.526l-119.493,0l-0,-20.526l119.493,-0Zm0,-42.38l0,12.62l-119.493,-0l-0,-12.62l119.493,-0Zm0,21.19l0,12.62l-119.493,-0l-0,-12.62l119.493,-0Z" style="fill:#fff;"/></svg>