<?xml version="1.0" encoding="UTF-8" standalone="no"?><!DOCTYPE svg PUBLIC "-//W3C//DTD SVG 1.1//EN" "http://www.w3.org/Graphics/SVG/1.1/DTD/svg11.dtd"><svg width="100%" height="100%" viewBox="0 0 341 225" version="1.1" xmlns="http://www.w3.org/2000/svg" xmlns:xlink="http://www.w3.org/1999/xlink" xml:space="preserve" xmlns:serif="http://www.serif.com/" style="fill-rule:evenodd;clip-rule:evenodd;stroke-linejoin:round;stroke-miterlimit:2;"><path d="M55.469,126.096c-30.506,-1.122 -54.834,-26.199 -54.836,-56.915c-0.011,-5.131 -0.012,-10.589 -0.012,-15.304c-0.001,-12.641 5.07,-24.753 14.076,-33.623c11.113,-10.855 26.292,-17.547 43.078,-17.547l108.003,-0c17.046,-0 30.857,13.81 30.857,30.856l0.003,61.717c0,17.046 -13.81,30.856 -30.856,30.856l-56.898,0l-40.259,69.732c3.691,2.131 4.97,6.904 2.839,10.595l-7.715,13.362c-2.146,3.615 -6.864,4.88 -10.548,2.772l-40.082,-23.142c-3.691,-2.131 -4.955,-6.848 -2.824,-10.538l7.71,-13.362c2.133,-3.691 6.848,-4.955 10.539,-2.824l26.925,-46.635Zm283.022,-123.389l0,46.363l-119.493,-0l-0,-46.363l119.493,-0Zm0,54.933l0,19.801l-119.493,-0l-0,-19.801l119.493,-0Zm0,28.371l0,25.53l-119.493,-0l-0,-25.53l119.493,-0Zm0,34.1l0,32.031l-119.493,-0l-0,-32.031l119.493,0Zm0,82.981l0,20.527l-119.493,-0l-0,-20.527l119.493,-0Zm0,-42.38l0,12.62l-119.493,-0l-0,-12.62l119.493,-0Zm0,21.19l0,12.62l-119.493,-0l-0,-12.62l119.493,-0Z" style="fill:#fff;"/></svg>