<?xml version="1.0" encoding="UTF-8" standalone="no"?><!DOCTYPE svg PUBLIC "-//W3C//DTD SVG 1.1//EN" "http://www.w3.org/Graphics/SVG/1.1/DTD/svg11.dtd"><svg width="100%" height="100%" viewBox="0 0 341 275" version="1.1" xmlns="http://www.w3.org/2000/svg" xmlns:xlink="http://www.w3.org/1999/xlink" xml:space="preserve" xmlns:serif="http://www.serif.com/" style="fill-rule:evenodd;clip-rule:evenodd;stroke-linejoin:round;stroke-miterlimit:2;"><path d="M243.355,100.074c-7.819,0 -14.156,-6.348 -14.156,-14.156l-0,-70.78c-0,-7.819 6.337,-14.156 14.156,-14.156l70.779,0c7.808,0 14.156,6.337 14.156,14.156l0,70.78c0,7.808 -6.348,14.156 -14.156,14.156l-70.779,0Zm61.003,-59.322c2.411,-2.411 2.411,-6.348 0,-8.759c-2.411,-2.411 -6.348,-2.411 -8.759,-0l-23.932,23.932l-9.777,-9.776c-2.411,-2.411 -6.348,-2.411 -8.759,-0c-2.417,2.411 -2.417,6.348 0,8.759l14.156,14.156c2.411,2.411 6.348,2.411 8.759,-0l28.312,-28.312Zm-248.889,136.099c-30.506,-1.122 -54.834,-26.199 -54.836,-56.915c-0.011,-5.131 -0.012,-10.589 -0.012,-15.304c-0.001,-12.64 5.07,-24.752 14.076,-33.622c11.113,-10.855 26.292,-17.548 43.078,-17.548l108.003,0c17.046,0 30.857,13.811 30.857,30.857l0.003,61.716c0,17.046 -13.81,30.857 -30.856,30.857l-56.898,-0l-40.259,69.731c3.691,2.131 4.97,6.904 2.839,10.595l-7.715,13.363c-2.146,3.615 -6.864,4.879 -10.548,2.771l-40.082,-23.141c-3.691,-2.132 -4.955,-6.848 -2.824,-10.539l7.71,-13.362c2.133,-3.691 6.848,-4.955 10.539,-2.824l26.925,-46.635Zm283.022,-68.456l0,19.801l-119.493,-0l-0,-19.801l119.493,0Zm0,28.371l0,25.53l-119.493,0l-0,-25.53l119.493,-0Zm0,34.1l0,32.031l-119.493,0l-0,-32.031l119.493,0Zm0,82.981l0,20.527l-119.493,0l-0,-20.527l119.493,0Zm0,-42.38l0,12.62l-119.493,0l-0,-12.62l119.493,0Zm0,21.19l0,12.62l-119.493,0l-0,-12.62l119.493,0Z" style="fill:#fff;"/></svg>