<?xml version="1.0" encoding="UTF-8" standalone="no"?><!DOCTYPE svg PUBLIC "-//W3C//DTD SVG 1.1//EN" "http://www.w3.org/Graphics/SVG/1.1/DTD/svg11.dtd"><svg width="100%" height="100%" viewBox="0 0 313 275" version="1.1" xmlns="http://www.w3.org/2000/svg" xmlns:xlink="http://www.w3.org/1999/xlink" xml:space="preserve" xmlns:serif="http://www.serif.com/" style="fill-rule:evenodd;clip-rule:evenodd;stroke-linejoin:round;stroke-miterlimit:2;"><path d="M198.559,56.009l0,31.426c0,14.702 11.933,26.656 26.656,26.656l24.092,-0l-0,127.057c-0,16.995 -13.862,30.856 -30.857,30.856l-185.138,0c-16.996,0 -30.857,-13.861 -30.857,-30.856l0,-154.282c0,-16.996 13.861,-30.857 30.857,-30.857l27.095,0c15.573,-18.846 39.101,-30.856 65.474,-30.856c26.373,-0 49.901,12.01 65.459,30.856l7.219,0Zm-72.678,115.712c34.038,-0 61.713,-27.684 61.713,-61.713c-0,-34.029 -27.684,-61.713 -61.713,-61.713c-34.029,0 -61.713,27.684 -61.713,61.713c-0,34.029 27.684,61.713 61.713,61.713Zm26.18,-99.681c3.905,1.712 5.785,6.195 4.074,10.125l-16.272,37.91c3.254,3.433 5.303,8.013 5.303,13.075c0,10.655 -8.62,19.286 -19.285,19.286c-10.665,-0 -19.285,-8.621 -19.285,-19.286c-0,-10.607 8.582,-19.14 19.188,-19.285l16.152,-37.727c1.687,-3.977 6.268,-5.785 10.125,-4.098Zm73.154,29.551c-7.819,-0 -14.156,-6.348 -14.156,-14.156l0,-70.78c0,-7.819 6.337,-14.156 14.156,-14.156l70.78,0c7.808,0 14.156,6.337 14.156,14.156l-0,70.78c-0,7.808 -6.348,14.156 -14.156,14.156l-70.78,-0Zm17.474,-60.141l10.418,10.396l-10.418,10.595c-2.057,2.079 -2.057,5.441 -0,7.321c2.079,2.256 5.441,2.256 7.321,-0l10.396,-10.219l10.595,10.219c2.079,2.256 5.441,2.256 7.321,-0c2.256,-1.88 2.256,-5.242 0,-7.321l-10.219,-10.595l10.219,-10.396c2.256,-1.88 2.256,-5.242 0,-7.321c-1.88,-2.057 -5.242,-2.057 -7.321,-0l-10.595,10.418l-10.396,-10.418c-1.88,-2.057 -5.242,-2.057 -7.321,-0c-2.057,2.079 -2.057,5.441 -0,7.321Z" style="fill:#fff;"/></svg>