<?xml version="1.0" encoding="UTF-8" standalone="no"?><!DOCTYPE svg PUBLIC "-//W3C//DTD SVG 1.1//EN" "http://www.w3.org/Graphics/SVG/1.1/DTD/svg11.dtd"><svg width="100%" height="100%" viewBox="0 0 313 272" version="1.1" xmlns="http://www.w3.org/2000/svg" xmlns:xlink="http://www.w3.org/1999/xlink" xml:space="preserve" xmlns:serif="http://www.serif.com/" style="fill-rule:evenodd;clip-rule:evenodd;stroke-linejoin:round;stroke-miterlimit:2;"><path d="M198.559,55.254l0,31.425c0,14.703 11.933,26.656 26.656,26.656l24.092,0l-0,127.058c-0,16.995 -13.862,30.856 -30.857,30.856l-185.138,0c-16.996,0 -30.857,-13.861 -30.857,-30.856l0,-154.283c0,-16.995 13.861,-30.856 30.857,-30.856l27.095,-0c15.573,-18.847 39.101,-30.857 65.474,-30.857c26.373,0 49.901,12.01 65.459,30.857l7.219,-0Zm26.656,45.581c-7.819,0 -14.156,-6.348 -14.156,-14.156l0,-70.779c0,-7.819 6.337,-14.156 14.156,-14.156l70.78,-0c7.808,-0 14.156,6.337 14.156,14.156l-0,70.779c-0,7.808 -6.348,14.156 -14.156,14.156l-70.78,0Zm-99.334,70.131c34.038,-0 61.713,-27.685 61.713,-61.713c-0,-34.029 -27.684,-61.713 -61.713,-61.713c-34.029,-0 -61.713,27.684 -61.713,61.713c-0,34.028 27.684,61.713 61.713,61.713Zm26.18,-99.681c3.905,1.711 5.785,6.195 4.074,10.124l-16.272,37.911c3.254,3.432 5.303,8.013 5.303,13.075c0,10.655 -8.62,19.285 -19.285,19.285c-10.665,0 -19.285,-8.62 -19.285,-19.285c-0,-10.607 8.582,-19.141 19.188,-19.285l16.152,-37.727c1.687,-3.978 6.268,-5.786 10.125,-4.098Zm134.157,-29.772c2.411,-2.411 2.411,-6.348 0,-8.759c-2.411,-2.411 -6.348,-2.411 -8.759,0l-23.932,23.932l-9.776,-9.776c-2.411,-2.411 -6.348,-2.411 -8.759,0c-2.418,2.411 -2.418,6.348 -0,8.759l14.156,14.156c2.41,2.411 6.348,2.411 8.759,-0l28.311,-28.312Z" style="fill:#fff;"/></svg>